<svg height="1024" id="Layer_1" version="1.1" viewBox="0 0 1024 1024" width="1024" xml:space="preserve" xmlns="http://www.w3.org/2000/svg" xmlns:xlink="http://www.w3.org/1999/xlink"><path d="M983.766 312.727c-25.785-60.972-62.694-115.728-109.705-162.744-47.011-47.017-101.762-83.934-162.732-109.726C648.194 13.548 581.14.004 512 0c-69.104 0-136.155 13.54-199.289 40.243-60.969 25.787-115.721 62.699-162.735 109.71-47.014 47.011-83.929 101.761-109.72 162.728C13.548 375.814.004 442.865 0 511.97c-.004 69.109 13.533 136.165 40.234 199.304 25.785 60.973 62.696 115.728 109.707 162.743 47.011 47.018 101.762 83.935 162.732 109.727 63.136 26.708 130.19 40.253 199.323 40.257h.009c69.104 0 136.153-13.54 199.288-40.243 60.969-25.787 115.72-62.699 162.733-109.709 47.013-47.01 83.929-101.76 109.72-162.728 26.708-63.134 40.251-130.186 40.255-199.29.003-69.11-13.534-136.165-40.235-199.304zM512.004 976.328h-.03c-124.026-.007-240.627-48.313-328.323-136.019-87.694-87.705-135.986-204.31-135.979-328.336.015-256.016 208.312-464.3 464.356-464.3 124.026.007 240.626 48.312 328.32 136.017 87.695 87.706 135.986 204.311 135.979 328.337-.014 256.016-208.309 464.301-464.323 464.301z" fill="#262626" id="Background"/><g id="GooglePlus" fill="#262626"><path d="M813.338 464.648h-61.556v-61.556h-39.189v61.556h-61.557v39.189h61.557v61.557h39.189v-61.557h61.556z"/><path d="M622.014 593.122c-20.704-23.292-52.498-47.692-68.024-61.372-15.528-13.679-49.911-38.079 16.267-85.402 66.177-47.323 56.936-109.063 43.625-146.404-13.31-37.34-39.928-54.716-44.734-61.372-4.807-6.654 1.108-4.806 1.108-4.806s41.407 16.267 91.318-26.619H524.412c-34.693-1.534-70.188 1.229-104.005 9.086-37.896 8.803-72.655 34.563-94.086 66.783-3.577 5.377-6.949 11.068-9.685 16.928-15.983 34.253-16.833 73.261-3.224 108.504 3.855 9.987 9.401 20.311 16.164 28.656 17.376 21.443 53.237 44.364 85.032 46.584 31.795 2.218 46.214 1.479 46.214 1.479s-24.031 43.255 15.712 80.965c0 0-26.064 3.882-74.312 10.537-48.247 6.654-119.97 33.827-134.758 102.223-14.788 68.396 31.673 104.998 67.228 121.265 43.851 20.063 94.635 22.551 141.819 16.787 25.227-3.082 50.876-8.532 74.149-19.006 29.577-13.309 55.087-33.643 72.093-55.825 24.648-32.15 35.231-79.386 19.452-117.89-4.586-11.19-12.177-22.086-20.191-31.101zm-158.906-132.91c-25.625-3.882-45.912-23.292-57.558-38.819-14.12-18.827-21.232-44.86-25.488-67.647-2.314-12.398-2.729-26.047-2.291-38.623.898-25.708 10.645-50.549 28.547-65.846 11.796-10.081 27.134-16.016 45.814-15.325 43.632 1.616 72.623 44.738 85.957 82.075 5.546 15.528 10.537 42.146 11.091 56.011.556 13.864 1.109 45.474-17.746 63.773-18.853 18.301-42.699 28.283-68.326 24.401zm129.33 250.476c-8.873 87.25-141.228 71.723-158.973 69.504-17.746-2.219-110.173-25.879-97.603-105.735 1.864-11.849 7.021-24.321 14.631-33.586 13.946-16.983 34.412-28.376 54.914-35.374 24.953-8.515 50.66-15.282 76.073-13.77 13.196.786 26.314 3.806 39.207 9.973 38.688 18.51 76.328 63.985 71.751 108.988z"/></g></svg>