<svg height="1024" id="Layer_1" version="1.1" viewBox="0 0 1024 1024" width="1024" xml:space="preserve" xmlns="http://www.w3.org/2000/svg" xmlns:xlink="http://www.w3.org/1999/xlink"><path d="M983.766 312.727c-25.785-60.972-62.694-115.728-109.705-162.744-47.011-47.017-101.762-83.934-162.732-109.726C648.194 13.548 581.14.004 512 0c-69.104 0-136.155 13.54-199.289 40.243-60.969 25.787-115.721 62.699-162.735 109.71-47.014 47.011-83.929 101.761-109.72 162.728C13.548 375.814.004 442.865 0 511.97c-.004 69.109 13.533 136.165 40.234 199.304 25.785 60.973 62.696 115.728 109.707 162.743 47.011 47.018 101.762 83.935 162.732 109.727 63.136 26.708 130.19 40.253 199.323 40.257h.009c69.104 0 136.153-13.54 199.288-40.243 60.969-25.787 115.72-62.699 162.733-109.709 47.013-47.01 83.929-101.76 109.72-162.728 26.708-63.134 40.251-130.186 40.255-199.29.003-69.11-13.534-136.165-40.235-199.304zM512.004 976.328h-.03c-124.026-.007-240.627-48.313-328.323-136.019-87.694-87.705-135.986-204.31-135.979-328.336.015-256.016 208.312-464.3 464.356-464.3 124.026.007 240.626 48.312 328.32 136.017 87.695 87.706 135.986 204.311 135.979 328.337-.014 256.016-208.309 464.301-464.323 464.301z" fill="#262626" id="Background"/><g id="Twitter"><path d="M742.988 348.513s52.681-44.338 51.012-64.124c0 0-60.785 26.698-74.135 27.89 0 0-4.227-4.253-11.146-9.845a176.945 176.945 0 0 0-7.762-5.93 108.747 108.747 0 0 0-16.602-9.969 119.046 119.046 0 0 0-8.797-3.84c-19.379-8.492-40.61-10.572-61.45-8.292-2.978.326-5.946.741-8.901 1.238-34.565 5.411-64.125 26.388-82.727 54.989a97.908 97.908 0 0 0-4.629 8.033c-2.818 5.492-5.089 11.256-6.686 17.269a174.95 174.95 0 0 0-1.96 7.565 129.236 129.236 0 0 0-1.736 8.615c-1.907 11.681 0 49.583 0 49.583s-153.753 4.768-252.442-123.003c0 0-48.628 92.014 35.28 156.376 0 0-17.064 7.628-49.295-11.442 0 0-16.02 70.082 87.912 118.234H278.39s17.64 77.711 111.562 84.862c0 0-44.338 59.594-173.063 50.535 0 0 116.14 80.755 265.766 43.276 2.671-.67 5.354-1.377 8.047-2.122 23.682-7.305 47.52-15.886 69.171-27.394a342.423 342.423 0 0 0 5.671-3.008 398.277 398.277 0 0 0 17.099-9.816s157.32-85.241 170.191-305.489c0 0 33.063-19.401 54.277-56.587 0 .001-59.594 13.826-64.123 12.396z" fill="#262626" id="Twitter_1_"/></g></svg>