<svg height="1024" id="Layer_1" version="1.1" viewBox="0 0 1024 1024" width="1024" xml:space="preserve" xmlns="http://www.w3.org/2000/svg" xmlns:xlink="http://www.w3.org/1999/xlink"><path d="M983.766 312.727c-25.785-60.972-62.694-115.728-109.705-162.744-47.011-47.017-101.762-83.934-162.732-109.726C648.194 13.548 581.14.004 512 0c-69.104 0-136.155 13.54-199.289 40.243-60.969 25.787-115.721 62.699-162.735 109.71-47.014 47.011-83.929 101.761-109.72 162.728C13.548 375.814.004 442.865 0 511.97c-.004 69.109 13.533 136.165 40.234 199.304 25.785 60.973 62.696 115.728 109.707 162.743 47.011 47.018 101.762 83.935 162.732 109.727 63.136 26.708 130.19 40.253 199.323 40.257h.009c69.104 0 136.153-13.54 199.288-40.243 60.969-25.787 115.72-62.699 162.733-109.709 47.013-47.01 83.929-101.76 109.72-162.728 26.708-63.134 40.251-130.186 40.255-199.29.003-69.11-13.534-136.165-40.235-199.304zM512.004 976.328h-.03c-124.026-.007-240.627-48.313-328.323-136.019-87.694-87.705-135.986-204.31-135.979-328.336.015-256.016 208.312-464.3 464.356-464.3 124.026.007 240.626 48.312 328.32 136.017 87.695 87.706 135.986 204.311 135.979 328.337-.014 256.016-208.309 464.301-464.323 464.301z" fill="#262626" id="Background"/><g id="VK"><path d="M154.504 399.328c7.7 20.099 17.191 39.48 26.987 58.622 23.277 45.48 47.248 89.673 79.387 129.647 32.479 40.396 70.825 79.544 115.996 105.676 12.563 7.268 25.77 13.4 39.527 18.061 53.079 17.979 111.295 16.267 129.273 4.281 17.979-11.986-3.424-90.75 12.842-100.167 16.267-9.418 45.375 11.13 66.777 29.965 21.403 18.834 37.669 35.1 49.656 47.942 7.506 8.042 12.79 17.64 22.575 23.376 16.186 9.486 37.753 8.435 55.808 8.485 10.065.029 20.133.063 30.199-.063 6.803-.084 13.608.136 20.406-.193 11.171-.542 25.779-4.952 24.941-18.927-.198-3.304-.931-7.256-2.244-10.306-2.822-6.555-6.797-13.357-11.069-19.067-22.258-29.75-37.026-44.946-48.155-56.933-11.13-11.984-56.933-55.22-59.929-63.78-2.996-8.562-3.96-12.36 4.548-23.918 8.508-11.559 27.129-40.72 41.684-61.694 9.128-13.155 17.42-26.91 25.612-40.659 9.659-16.21 18.743-32.813 26.485-50.029 3.462-7.698 6.604-14.711 4.46-23.337-1.437-5.779-4.687-10.856-10.739-12.282-3.304-.778-6.909-.857-10.29-.857h-45.589c-5.958 0-11.917-.087-17.876-.076-6.109.011-12.269-.037-18.36.485-8.666.742-13.977 7.425-18.336 14.163-5.333 8.245-10.187 16.823-15.36 25.172a839.213 839.213 0 0 0-10.397 17.243c-5.312 9.04-10.784 17.983-16.256 26.927-2.271 3.71-4.55 7.416-6.789 11.146-6.421 10.699-62.069 83.898-73.198 86.896s-14.982 2.142-14.982-20.547V353.047s-.854-9.935-10.272-9.935H398.637s-21.188.088-13.697 19.138c7.491 19.049 29.644 24.828 29.644 56.611v124.565s-3.745 27.931-27.931 4.815c-19.059-18.215-34.762-39.751-48.637-62.081-14.426-23.215-26.048-47.333-36.4-72.602-2.961-7.227-5.893-14.466-8.934-21.659-3.174-7.509-6.319-15.031-9.363-22.593-3.535-8.784-7.317-20.265-16.849-24.309-4.792-2.033-10.092-1.933-15.2-1.932-18.943.005-37.885.058-56.827.022-5.558-.01-11.116-.016-16.674-.002-13.123.031-29.445-.356-32.558 16.038-1.794 9.443 1.772 19.523 4.757 28.367 1.353 4.021 3.022 7.885 4.536 11.838z" fill="#262626" id="Vk"/></g></svg>